<?xml version="1.0" encoding="utf-8"?>
<!-- Generator: Adobe Illustrator 16.0.0, SVG Export Plug-In . SVG Version: 6.00 Build 0)  -->
<!DOCTYPE svg PUBLIC "-//W3C//DTD SVG 1.1//EN" "http://www.w3.org/Graphics/SVG/1.1/DTD/svg11.dtd">
<svg version="1.1" id="图层_1" xmlns="http://www.w3.org/2000/svg" xmlns:xlink="http://www.w3.org/1999/xlink" x="0px" y="0px"
	 width="358.375px" height="358.375px" viewBox="0 0 358.375 358.375" enable-background="new 0 0 358.375 358.375"
	 xml:space="preserve">
<circle fill="#FFFFFF" cx="179.188" cy="179.188" r="179.188"/>
<circle fill="#EAB731" cx="179.188" cy="179.188" r="143.188"/>
<g>
	<defs>
		<rect id="SVGID_1_" x="136.433" y="133.991" width="85.51" height="40.196"/>
	</defs>
	<clipPath id="SVGID_2_">
		<use xlink:href="#SVGID_1_"  overflow="visible"/>
	</clipPath>
	
		<circle clip-path="url(#SVGID_2_)" fill="none" stroke="#474747" stroke-width="15" stroke-miterlimit="10" cx="179.188" cy="136.914" r="28.503"/>
</g>
<circle fill="#474747" cx="145.838" cy="105.758" r="12.972"/>
<circle fill="#474747" cx="214.027" cy="105.758" r="12.973"/>
<g>
	<path fill="#FFFFFF" d="M44.408,210.447c16.638-1.841,17.581,15.261,34.32,15.261c16.74,0,16.74-15.307,33.48-15.307
		c16.742,0,16.742,15.307,33.483,15.307s16.742-15.307,33.484-15.307c16.743,0,16.743,15.307,33.486,15.307
		c16.742,0,16.742-15.307,33.484-15.307c16.744,0,16.744,15.307,33.489,15.307s18.925-18.915,35.23-15.106
		c3.728,0.871-10.22,8.609-11.454,12.233c-1.233,3.623,13.256,8.558,12.022,12.181c-1.234,3.624-15.724-1.311-16.958,2.313
		s13.256,8.559,12.021,12.183c-1.234,3.626-15.725-1.308-16.959,2.318c-1.234,3.624,13.256,8.559,12.021,12.184
		c-1.235,3.627-15.726-1.308-16.961,2.32c-1.235,3.627,13.271,10.761,11.152,13.953c-1.77,2.666-13.657-8.21-16.156-6.211
		c-2.499,2,7.063,13.952,4.564,15.952c-2.499,1.999-12.062-9.954-14.561-7.955c-2.5,2,7.063,13.953,4.563,15.953
		c-2.498,1.999-12.061-9.955-14.56-7.956c-2.5,2,7.062,13.954,4.562,15.954c-2.503,2.002-12.065-9.952-14.567-7.95
		s6.096,15.358,3.237,16.807c-2.637,1.337-8.19-13.529-11.059-12.811c-2.867,0.721,0.858,15.566-2.009,16.287
		c-2.868,0.719-6.594-14.127-9.462-13.408c-2.868,0.721,0.858,15.566-2.01,16.287c-2.867,0.719-6.594-14.127-9.461-13.407
		c-2.869,0.72,0.857,15.566-2.012,16.286c-2.872,0.721-6.598-14.125-9.47-13.404c-2.871,0.721,0.146,16.015-2.783,16.438
		c-3.287,0.477-4.816-15.043-8.134-14.867c-3.317,0.175-2.511,15.461-5.828,15.636c-3.317,0.176-4.123-15.11-7.44-14.936
		c-3.318,0.175-2.514,15.46-5.832,15.635c-3.316,0.175-4.122-15.111-7.438-14.936c-3.319,0.175-2.514,15.461-5.833,15.636
		c-3.321,0.176-4.127-15.111-7.449-14.936c-3.322,0.175-4.187,16.082-7.47,15.547c-3.103-0.505,1.216-15.828-1.694-17.017
		c-2.91-1.19-8.702,12.979-11.612,11.79c-2.91-1.189,2.882-15.358-0.028-16.548c-2.91-1.19-8.702,12.979-11.613,11.789
		c-2.909-1.189,2.883-15.358-0.026-16.547c-2.912-1.19-8.704,12.978-11.615,11.787c-2.914-1.19,2.878-15.359-0.035-16.551
		c-2.914-1.19-9.681,12.923-12.434,11.397c-2.129-1.181,6.473-14.235,4.549-15.726c-1.925-1.491-11.299,10.608-13.224,9.117
		c-1.924-1.49,7.45-13.591,5.526-15.082c-1.924-1.49-11.299,10.61-13.223,9.119c-1.924-1.49,7.451-13.591,5.527-15.081
		c-1.925-1.491-11.299,10.609-13.224,9.118c-1.928-1.493,7.446-13.594,5.519-15.088c-1.928-1.493-12.336,10.144-14.035,8.394
		c-1.765-1.818,10.153-11.908,8.651-13.948c-1.503-2.041-13.829,7.033-15.332,4.992c-1.502-2.04,10.824-11.115,9.322-13.156
		c-1.502-2.04-13.829,7.035-15.331,4.995s10.825-11.115,9.323-13.155c-1.503-2.041-13.83,7.034-15.332,4.993
		c-1.505-2.044,10.821-11.12,9.316-13.164s-14.806,6.22-15.972,3.965c-0.854-1.652,13.71-7.291,13.229-9.088
		c-0.481-1.796-15.267,2.162-15.748,0.366c-0.481-1.797,14.305-5.755,13.824-7.552c-0.48-1.796-15.267,2.163-15.748,0.367
		s14.305-5.755,13.824-7.551c-0.481-1.797-15.267,2.162-15.748,0.365c-0.482-1.8,14.288-6.111,13.726-7.888
		C51.741,213.755,42.557,210.652,44.408,210.447z"/>
	<path fill="none" stroke="#FFFFFF" stroke-miterlimit="10" d="M44.408,210.447c16.638-1.841,17.581,15.261,34.32,15.261
		c16.74,0,16.74-15.307,33.48-15.307c16.742,0,16.742,15.307,33.483,15.307s16.742-15.307,33.484-15.307
		c16.743,0,16.743,15.307,33.486,15.307c16.742,0,16.742-15.307,33.484-15.307c16.744,0,16.744,15.307,33.489,15.307
		s18.925-18.915,35.23-15.106c3.728,0.871-10.22,8.609-11.454,12.233c-1.233,3.623,13.256,8.558,12.022,12.181
		c-1.234,3.624-15.724-1.311-16.958,2.313s13.256,8.559,12.021,12.183c-1.234,3.626-15.725-1.308-16.959,2.318
		c-1.234,3.624,13.256,8.559,12.021,12.184c-1.235,3.627-15.726-1.308-16.961,2.32c-1.235,3.627,13.271,10.761,11.152,13.953
		c-1.77,2.666-13.657-8.21-16.156-6.211c-2.499,2,7.063,13.952,4.564,15.952c-2.499,1.999-12.062-9.954-14.561-7.955
		c-2.5,2,7.063,13.953,4.563,15.953c-2.498,1.999-12.061-9.955-14.56-7.956c-2.5,2,7.062,13.954,4.562,15.954
		c-2.503,2.002-12.065-9.952-14.567-7.95s6.096,15.358,3.237,16.807c-2.637,1.337-8.19-13.529-11.059-12.811
		c-2.867,0.721,0.858,15.566-2.009,16.287c-2.868,0.719-6.594-14.127-9.462-13.408c-2.868,0.721,0.858,15.566-2.01,16.287
		c-2.867,0.719-6.594-14.127-9.461-13.407c-2.869,0.72,0.857,15.566-2.012,16.286c-2.872,0.721-6.598-14.125-9.47-13.404
		c-2.871,0.721,0.146,16.015-2.783,16.438c-3.287,0.477-4.816-15.043-8.134-14.867c-3.317,0.175-2.511,15.461-5.828,15.636
		c-3.317,0.176-4.123-15.11-7.44-14.936c-3.318,0.175-2.514,15.46-5.832,15.635c-3.316,0.175-4.122-15.111-7.438-14.936
		c-3.319,0.175-2.514,15.461-5.833,15.636c-3.321,0.176-4.127-15.111-7.449-14.936c-3.322,0.175-4.187,16.082-7.47,15.547
		c-3.103-0.505,1.216-15.828-1.694-17.017c-2.91-1.19-8.702,12.979-11.612,11.79c-2.91-1.189,2.882-15.358-0.028-16.548
		c-2.91-1.19-8.702,12.979-11.613,11.789c-2.909-1.189,2.883-15.358-0.026-16.547c-2.912-1.19-8.704,12.978-11.615,11.787
		c-2.914-1.19,2.878-15.359-0.035-16.551c-2.914-1.19-9.681,12.923-12.434,11.397c-2.129-1.181,6.473-14.235,4.549-15.726
		c-1.925-1.491-11.299,10.608-13.224,9.117c-1.924-1.49,7.45-13.591,5.526-15.082c-1.924-1.49-11.299,10.61-13.223,9.119
		c-1.924-1.49,7.451-13.591,5.527-15.081c-1.925-1.491-11.299,10.609-13.224,9.118c-1.928-1.493,7.446-13.594,5.519-15.088
		c-1.928-1.493-12.336,10.144-14.035,8.394c-1.765-1.818,10.153-11.908,8.651-13.948c-1.503-2.041-13.829,7.033-15.332,4.992
		c-1.502-2.04,10.824-11.115,9.322-13.156c-1.502-2.04-13.829,7.035-15.331,4.995s10.825-11.115,9.323-13.155
		c-1.503-2.041-13.83,7.034-15.332,4.993c-1.505-2.044,10.821-11.12,9.316-13.164s-14.806,6.22-15.972,3.965
		c-0.854-1.652,13.71-7.291,13.229-9.088c-0.481-1.796-15.267,2.162-15.748,0.366c-0.481-1.797,14.305-5.755,13.824-7.552
		c-0.48-1.796-15.267,2.163-15.748,0.367s14.305-5.755,13.824-7.551c-0.481-1.797-15.267,2.162-15.748,0.365
		c-0.482-1.8,14.288-6.111,13.726-7.888C51.741,213.755,42.557,210.652,44.408,210.447z"/>
</g>
<circle fill="none" stroke="#474747" stroke-width="25" stroke-miterlimit="10" cx="179.188" cy="179.188" r="143.188"/>
</svg>
